<?xml version="1.0" encoding="UTF-8"?>
<svg id="Layer_1" data-name="Layer 1" xmlns="http://www.w3.org/2000/svg" viewBox="0 0 420.87 421.11">
  <defs>
    <style>
      .cls-1 {
        stroke-width: 0px;
        fill: #ffffff;
      }
    </style>
  </defs>
  <path class="cls-1" d="m378.19,376.12c-4.67,8.19-10.48,15.38-17.97,21.2-10.42,8.11-22.2,13.39-34.76,17.18-8.42,2.54-17.02,4.11-25.67,5.51-2.02.33-4.12.18-6.03,1.09h-2.4c-.23-.38-.65-.41-1.01-.57-2.65-1.17-3.27-2.55-2.35-5.35,1.41-4.25,4.55-7.04,8.15-9.37,2.73-1.77,5.8-2.58,9.02-2.88,6.19-.58,12.3-1.62,18.37-2.9,8.6-1.81,16.99-4.27,25.11-7.65,10.7-4.46,20.54-10.24,28.75-18.56.38-.39.69-.9,1.31-.99.14.97-.81,1.75-.47,2.76,0,0,.02-.03.02-.03-.11.04-.28.06-.31.13-.1.21.06.33.23.43Z"/>
  <path class="cls-1" d="m0,73.03c.9-.35.88-1.27,1.21-1.96,2.56-5.37,6.68-8.84,12.48-10.27.39-.1.78-.17,1.18-.21,5-.45,7.76,2.73,6.6,7.58-1.4,5.84-8.68,11.84-14.67,12.13-2.57.12-4.76-.43-6.03-2.94-.15-.29-.41-.48-.76-.5v-3.84Z"/>
  <path class="cls-1" d="m409.06,307.56c-.17.26-.46.52-.49.8-.53,5.54-2.54,10.64-4.55,15.74-1.02,2.59-2,5.19-3.04,7.77-.29.71-.35,1.57-1.12,2.02-.11-.54-.23-1.08-.34-1.62,1.34-3.32,1.47-6.83,1.69-10.33.01-2.87.25-5.77-.03-8.61-.21-2.11-.04-4.32-.88-6.35-.28-3.64-1.06-7.17-2.28-10.6-.58-3.4-1.86-6.59-3.1-9.77-.8-2.06-1.32-4.26-2.76-6.03-.03-.31.01-.66-.11-.92-1.7-3.61-3.34-7.27-5.48-10.66-.49-1.53-1.44-2.83-2.26-4.18-2.8-4.61-5.59-9.23-8.98-13.45-4.14-6.09-8.82-11.76-13.65-17.3-16.46-18.88-35.2-35.28-55.26-50.22-23.77-17.7-49.02-33.02-75.44-46.42-32.78-16.62-66.81-30.04-102.16-40.14-18.6-5.31-37.43-9.57-56.52-12.65-7.96-1.28-15.96-2.37-24-3.07-1.76-.15-3.47-.56-5.06-1.38-1.76-.91-2.76-2.36-2.97-4.35-.38-3.6.97-6.6,3.37-9.13,3.01-3.18,6.81-4.67,11.16-4.73,3.93-.05,7.81.62,11.69,1.1,11.97,1.5,23.85,3.52,35.66,5.98,23.33,4.85,46.19,11.38,68.63,19.34,41.88,14.86,81.6,34.12,118.88,58.34,23.12,15.02,44.92,31.71,64.62,51.04,13.79,13.53,26.32,28.12,36.51,44.6.21.34.48.64.72.95.58,1.67,1.69,3.04,2.5,4.58,2.06,3.93,4.14,7.84,6.21,11.76,1.43,3.53,2.87,7.07,4.3,10.6.75,2.73,1.43,5.48,2.26,8.18.66,2.17.68,4.49,1.69,6.57.32,3.33.65,6.67.97,10-.01,2.45.06,4.91-.07,7.36-.09,1.72-.61,3.43-.31,5.18Z"/>
  <path class="cls-1" d="m373.41,310.34c-4.93,1.85-9.93,3.49-15.04,4.78-5.55,1.41-11.15,2.62-16.83,3.45-4.65.68-9.31,1.26-13.97,1.71-2.77.27-5.56.55-8.35.57-8.24.06-16.47.06-24.71.03-4.38-.02-8.74-.56-13.11-.83-4.14-.26-8.25-.72-12.37-1.12-3.88-.38-7.75-.88-11.6-1.49-6.44-1.02-12.88-2.07-19.29-3.3-11.97-2.29-23.82-5.16-35.59-8.32-12.72-3.41-25.23-7.51-37.67-11.8-9.51-3.28-18.87-6.93-28.13-10.86-3.48-1.48-6.28-3.9-7.31-7.75-1.61-6.07,1.89-12.87,8.43-14.08,2.91-.54,5.56-.14,8.17.92,10.58,4.28,21.22,8.38,32.01,12.11,16.14,5.59,32.53,10.28,49.15,14.19,9.38,2.2,18.83,4.04,28.34,5.6,6.13,1.01,12.27,1.92,18.42,2.65,4.18.49,8.41.77,12.61,1.18,11.64,1.12,23.3,1.03,34.95.76,5.15-.12,10.32-.62,15.47-1.24,7.6-.91,15.12-2.2,22.56-3.94,1.32-.31,2.55-.94,3.93-1.02,3.91,5.59,7.14,11.57,9.93,17.79Z"/>
  <path class="cls-1" d="m399.59,237.29c-4.13-7.97-9.14-15.37-14.52-22.53-12.49-16.63-27.02-31.33-42.76-44.87-27.01-23.26-56.67-42.62-88.07-59.38-17.91-9.56-36.3-18.1-55.14-25.66-1.86-.75-3.67-1.59-5.25-2.84-2.5-1.99-4.05-4.53-4.05-7.8,0-3.91,2.76-7.04,6.76-7.89,3.51-.74,6.84-.09,10.08,1.2,9.2,3.67,18.28,7.61,27.26,11.79,32.04,14.92,62.49,32.53,90.89,53.59,16.08,11.92,31.3,24.85,45.19,39.28,11.22,11.66,21.45,24.12,29.98,37.91,3.28,5.3,6.17,10.81,8.9,16.41.42,1.78,1.38,3.34,1.99,5.04,1.26,3.47,2.54,6.93,3.81,10.39.69,2.97,1.38,5.94,2.06,8.92.76,4.65,1.25,9.33,1.4,14.04-.03,8.08-2.15,15.84-3.62,23.7-.25,1.32-.53,2.64-.79,3.96-.95-.82-.08-2.06-.68-2.96.92-3.57.48-7.17.16-10.76,0-2.94-.61-5.8-1.15-8.66-.41-2.15-.66-4.36-1.68-6.35-.61-3.62-1.9-7.03-3.3-10.4-1.86-5.67-4.45-10.99-7.48-16.11Z"/>
  <path class="cls-1" d="m382.3,337.97c-11.65,7.1-24.33,11.56-37.57,14.55-7.08,1.6-14.25,2.61-21.46,3.46-12.57,1.47-25.19,1.62-37.8,1.24-5.8-.17-11.62-.61-17.42-1.16-3.97-.38-7.94-.78-11.9-1.18-4.75-.49-9.48-1.21-14.2-1.95-8.26-1.3-16.48-2.88-24.66-4.6-9.05-1.9-18.04-4.08-26.96-6.5-10.86-2.95-21.6-6.28-32.27-9.87-2.82-.95-5.16-2.5-7.02-4.78-3.64-4.45-2.3-14.72,6.69-16.79,2.92-.67,5.71-.38,8.47.56,16.02,5.45,32.26,10.15,48.74,14,10.24,2.39,20.55,4.46,30.94,6.15,6.13,1,12.28,1.91,18.45,2.65,4.11.49,8.26.79,12.38,1.18,12.52,1.19,25.06,1.04,37.61.83,5.41-.09,10.81-.68,16.21-1.27,6.11-.67,12.15-1.68,18.16-2.93,9.88-2.07,19.46-5.01,28.6-9.35.29-.14.59-.23.89-.35,1.94,5.24,3.46,10.58,4.15,16.14Z"/>
  <path class="cls-1" d="m382.3,337.97c-.69-5.56-2.22-10.9-4.15-16.14-1.24-3.97-2.78-7.82-4.74-11.49-2.79-6.22-6.02-12.19-9.93-17.79-2.49-4.46-5.53-8.55-8.68-12.55-1.7-2.7-3.79-5.11-5.81-7.56-3.54-4.3-7.11-8.57-11.11-12.47-4.93-5.56-10.29-10.69-15.73-15.75-9.07-8.44-18.59-16.36-28.46-23.83-3.62-2.74-6-6.16-6.4-10.76-.28-3.22.42-6.2,2.47-8.76,2.15-2.67,5-3.63,8.33-3.01,2.14.4,4.07,1.35,5.81,2.69,21.18,16.23,40.87,34.03,57.66,54.86.1.12.24.21.36.31,4.5,6,8.91,12.07,13.09,18.29,2.33,3.95,4.67,7.9,7,11.86,1.15,2.5,2.33,4.99,3.44,7.51,1.3,2.95,2.54,5.92,3.81,8.88,1.1,3.67,2.2,7.35,3.3,11.02.05.55.04,1.12.16,1.66,1.05,4.49,1.58,9.05,1.93,13.63-.04,3.04-.08,6.09-.12,9.13-.67,4.16-1.35,8.32-2.43,12.4-3.03,9-8.31,16.82-13.22,24.82-.16.26-.43.44-.65.66-.34-1,.62-1.79.47-2.76,1.97-2.97,2.58-6.41,3.32-9.8.95-4.9,1.75-9.82,1.3-14.85.03-3.44-.26-6.86-1.04-10.22Z"/>
  <path class="cls-1" d="m418,200.66c-.03-2.44-.94-4.68-1.66-6.95-4.08-12.83-10.51-24.47-18.17-35.47-11.44-16.43-25.13-30.82-40.09-44.04-25.16-22.23-52.96-40.64-82.47-56.55-27.49-14.82-56.12-27.01-85.8-36.76-1.91-.63-3.78-1.32-5.39-2.55-1.79-1.37-3.21-3.04-2.78-5.46.43-2.39,2.26-3.58,4.45-4.21,3.83-1.11,7.61-.6,11.31.62,14.58,4.78,28.92,10.21,43.01,16.3,28.76,12.43,56.19,27.3,82.02,45.06,17.63,12.12,34.28,25.43,49.38,40.59,12.11,12.16,23.05,25.26,31.76,40.11,5.77,9.83,10.35,20.16,12.81,31.35,1.08,4.92,1.55,9.93,2.21,14.91.11.87.26,1.73.39,2.6-.32.15-.64.29-.97.44Z"/>
  <path class="cls-1" d="m420.26,221.24c1.19,8.71.36,17.42-.06,26.12-.95-.03-.51-.96-.88-1.37.38-3.86-.62-7.56-1.33-11.29-.14-.69-.24-1.39-.42-2.06-1.17-4.39-2.23-8.82-4.3-12.91-1.77-5.41-4.36-10.45-7.08-15.42-7.99-14.59-18.07-27.67-29.31-39.88-17.23-18.74-36.7-34.89-57.44-49.56-18.16-12.85-37.16-24.35-56.86-34.68-2.72-1.42-5.16-3.2-6.97-5.74-.79-1.12-1.41-2.31-1.72-3.66-1.11-4.83,2.24-8.66,7.2-8.14,2.4.26,4.69.93,6.84,2.06,27.3,14.37,53.22,30.87,77.23,50.29,9.95,8.05,19.49,16.56,28.41,25.75,12.4,12.77,23.63,26.46,32.53,41.94,4.31,7.5,7.99,15.28,10.59,23.55,1.61,4.9,2.62,9.94,3.57,14.99Z"/>
  <path class="cls-1" d="m383.34,348.19c.45,5.03-.35,9.95-1.3,14.85-1.81.63-2.88,2.23-4.32,3.34-8.23,6.36-17.34,11.01-27.06,14.63-9.15,3.42-18.6,5.68-28.19,7.33-5.96,1.02-11.98,1.67-18.02,2.17-9.41.77-18.82,1.03-28.23.8-7.09-.18-14.18-.51-21.24-1.26-2.13-.23-4.29-.35-6.43-.58-.55-.06-1.12-.08-1.65-.22-7.39-1.97-7.87-7.76-4.49-13.28,2.72-4.44,7.07-6.54,12.31-6.64,3.36-.07,6.67.47,10,.81,2.62.27,5.25.35,7.87.53,9.17.61,18.36.9,27.54.47,5.72-.27,11.45-.59,17.17-1.19,9.53-1,18.94-2.55,28.21-4.92,12.14-3.11,23.64-7.75,34.27-14.46,1.21-.76,2.38-1.59,3.57-2.38Z"/>
  <path class="cls-1" d="m337.88,259.97c3.99,3.9,7.56,8.17,11.11,12.47,2.02,2.45,4.11,4.86,5.81,7.56-3.69.6-7.37,1.25-11.07,1.78-3.46.49-6.94.82-10.42,1.24-4.19.51-8.42.47-12.62.82-3.81.31-7.67.24-11.49.05-3.57-.17-6.43-2.77-7.28-6.28-1.25-5.15-.38-9.83,3.51-13.65,1.7-1.67,3.76-2.64,6.24-2.57,5.67.15,11.31-.39,16.97-.55,3.07-.09,6.21-.14,9.25-.87Z"/>
  <path class="cls-1" d="m211.6,161.86c-.23-6.21,5.38-11.46,12.32-10.45,5.05.74,8.75,3.44,10.8,8.1,1.79,4.08,1.59,8.17-1.34,11.72-2.86,3.47-6.68,4.41-11.02,3.51-6.28-1.3-10.78-6.69-10.76-12.89Z"/>
  <path class="cls-1" d="m251,182.28c.08-2.69,1.6-5.92,5.13-7.86,3.86-2.13,7.74-1.51,11.39.62,4.99,2.92,7.63,8.9,6.59,14.56-.94,5.08-5.74,8.59-10.88,7.95-6.96-.86-12.32-7-12.23-15.28Z"/>
  <path class="cls-1" d="m163.25,54.3c3.39-.08,6.39.88,9.04,2.84,5.66,4.18,5.02,11.56-1.35,14.53-4.8,2.24-9.62,1.93-14.28-.59-.49-.26-.95-.6-1.38-.95-5.48-4.49-4.63-11.52,1.75-14.58,1.98-.95,4.08-1.36,6.2-1.25Z"/>
  <path class="cls-1" d="m126.68,62.52c-2.27.09-4.57-.48-6.69-1.71-4.92-2.84-5.67-8.49-1.62-12.47,3.03-2.97,6.84-3.95,10.96-3.86,2.25.05,4.4.58,6.4,1.71,5.18,2.94,5.9,8.72,1.48,12.73-2.91,2.64-6.46,3.66-10.53,3.58Z"/>
  <path class="cls-1" d="m229.05,63.38c-3.74-.31-7.79-1.77-10.89-5.23-2.11-2.36-3.46-5.07-2.23-8.3,1.26-3.32,4.21-4.31,7.34-4.36,5.39-.1,9.96,1.91,13.35,6.22.79,1.01,1.3,2.18,1.61,3.44.73,2.94-.42,5.61-3.08,7.07-1.38.76-3.35,1.19-6.11,1.16Z"/>
  <path class="cls-1" d="m185.74,30.86c3.78.09,7.23,1.12,10.18,3.56,4.82,3.97,4.04,9.92-1.77,12.06-5.77,2.12-11.26,1.06-15.88-2.97-4.4-3.83-3.29-9.38,2.08-11.68,1.45-.62,3.4-.97,5.38-.97Z"/>
  <path class="cls-1" d="m148.65,19.77c2.42-.14,4.93.56,7.24,1.94,4.73,2.82,4.98,8.12.31,11-5.29,3.27-10.86,3.27-16.42.49-.21-.11-.41-.25-.61-.38-4.17-2.94-4.23-7.47-.1-10.47,2.76-2,5.91-2.68,9.57-2.58Z"/>
  <path class="cls-1" d="m375.02,274.02c-4.19-6.22-8.6-12.29-13.09-18.29,4.58-1.11,9.1-2.41,13.4-4.36,3.38,4.22,6.18,8.84,8.98,13.45.82,1.35,1.76,2.65,2.26,4.18-3.88,1.6-7.53,3.71-11.54,5.03Z"/>
  <path class="cls-1" d="m106.52,26.53c-1.88.09-3.91-.27-5.8-1.27-3.48-1.84-4.18-5.16-1.62-8.15,2.69-3.17,6.37-4.48,10.35-4.92,2.62-.29,5.26-.23,7.76.92,4.11,1.89,4.88,5.59,1.79,8.88-2.63,2.81-7.31,4.54-12.49,4.53Z"/>
  <path class="cls-1" d="m162.54,0c2.35-.04,4.63.29,6.79,1.25.87.39,1.73.85,2.49,1.42,3,2.27,2.92,5.56-.16,7.76-1.18.84-2.5,1.41-3.92,1.73-3.58.82-7.13.75-10.63-.44-1.46-.49-2.79-1.21-3.89-2.3-2.22-2.19-2.12-4.85.29-6.84,1.78-1.47,3.9-2.15,6.16-2.43.95-.12,1.91-.11,2.87-.16Z"/>
  <path class="cls-1" d="m399.59,237.29c3.03,5.12,5.63,10.45,7.48,16.11-.42.07-.72.33-.94.65-1.57,2.3-3.83,3.86-5.91,5.62-2.07-3.92-4.15-7.84-6.21-11.76-.81-1.54-1.92-2.92-2.5-4.58,2.86-1.78,5.57-3.77,8.07-6.04Z"/>
  <path class="cls-1" d="m413.27,219.74c2.07,4.09,3.13,8.52,4.3,12.91.18.68.28,1.37.42,2.06-1.48,2.23-1.95,4.93-3.32,7.22-1.27-3.46-2.55-6.92-3.81-10.39-.62-1.7-1.58-3.26-1.99-5.04,1.24-.69,1.66-2.01,2.35-3.11.74-1.18,1.11-2.58,2.06-3.65Z"/>
  <path class="cls-1" d="m392.11,350.11c1.08-4.08,1.76-8.24,2.43-12.4.92-.5,1.41-1.41,2.09-2.15.99-1.08,1.48-2.59,2.88-3.3.11.54.23,1.08.34,1.62,0,0,.02-.04.02-.04-.62.3-.6.62-.04.97-1.51,5.04-4.01,9.62-6.61,14.16-.27.47-.47,1.03-1.11,1.14Z"/>
  <path class="cls-1" d="m413.04,289.58c.59.9-.27,2.14.68,2.96-.83,4.91-2.41,9.62-4.06,14.3-.1.27-.4.48-.6.71-.3-1.75.22-3.45.31-5.18.13-2.45.06-4.91.07-7.36,1.11-.67,1.3-1.94,1.94-2.91.55-.84.66-1.98,1.66-2.53Z"/>
  <path class="cls-1" d="m420.26,221.24c-.95-5.05-1.96-10.1-3.57-14.99.71-1.08.88-2.3.94-3.56.04-.69-.21-1.44.37-2.03.32-.15.64-.29.97-.44.02.24.03.48.05.71-.72.58-.85,1.12.11,1.59.8,1.05.41,2.32.6,3.47.81,5.05.99,10.14.54,15.24Z"/>
  <path class="cls-1" d="m419.32,246c.37.41-.07,1.34.88,1.37.65,1.67-.26,3.27-.23,4.93.08,3.97-.72,7.86-1.45,11.74-.06.3-.26.56-.39.84-.16-4.71-.64-9.39-1.4-14.04,1.11-.55.91-1.77,1.39-2.65.4-.73.18-1.8,1.2-2.19Z"/>
  <path class="cls-1" d="m419.12,202.52c-.96-.47-.83-1.01-.11-1.59.04.53.07,1.06.11,1.59Z"/>
  <path class="cls-1" d="m399.83,334.82c-.55-.35-.58-.67.04-.97-.01.32-.03.64-.04.97Z"/>
  <path class="cls-1" d="m378.19,376.12c-.17-.09-.33-.22-.23-.43.04-.08.21-.09.31-.13-.03.19-.06.37-.08.56Z"/>
  <path class="cls-1" d="m389.27,302.27c-1.27-2.96-2.51-5.94-3.81-8.88-1.11-2.52-2.29-5.01-3.44-7.51,1.75-1.28,3.8-2.01,5.69-3.03,1.46-.79,2.74-1.95,4.44-2.28,1.44,1.77,1.96,3.97,2.76,6.03,1.24,3.19,2.52,6.37,3.1,9.77-2.85,2.06-5.5,4.41-8.74,5.9Z"/>
  <path class="cls-1" d="m394.66,328.58c-.35-4.59-.88-9.15-1.93-13.63-.13-.54-.11-1.1-.16-1.66,2.73-1.92,5.2-4.15,7.72-6.31.84,2.04.67,4.24.88,6.35.28,2.84.05,5.74.03,8.61-.87.44-1.44,1.2-2.01,1.93-1.34,1.74-2.9,3.26-4.53,4.71Z"/>
  <path class="cls-1" d="m410.37,263.8c1.02,1.99,1.27,4.2,1.68,6.35.54,2.86,1.14,5.72,1.15,8.66-.74.29-.87,1.05-1.26,1.61-1.12,1.56-1.8,3.45-3.47,4.6-1.01-2.07-1.03-4.4-1.69-6.57-.83-2.7-1.51-5.45-2.26-8.18,2.35-1.8,3.79-4.42,5.85-6.47Z"/>
</svg>